<svg width="270px" height="61px" viewBox="0 0 270 61" version="1.1"
    xmlns="http://www.w3.org/2000/svg"
    xmlns:xlink="http://www.w3.org/1999/xlink">
    <defs>
        <polygon id="path-8m3qzvmj4s-1" points="0 60 269.041 60 269.041 0.79 0 0.79"></polygon>
    </defs>
    <g id="Page-1" stroke="none" stroke-width="1" fill="none" fill-rule="evenodd">
        <g id="splash-ecolimpio-v1" transform="translate(-106.000000, -98.000000)">
            <g id="Group-42" transform="translate(106.000000, 98.000000)">
                <polygon id="Fill-1" fill="#87B742" points="80.3966 1.7412 103.7416 1.7412 103.7416 5.6832 84.6456 5.6832 84.6456 15.4512 102.2956 15.4512 102.2956 19.1742 84.6456 19.1742 84.6456 30.0792 104.0696 30.0792 104.0696 33.9122 80.3966 33.9122"></polygon>
                <g id="Group-41" transform="translate(0.000000, 0.210000)">
                    <polygon id="Stroke-2" stroke="#87B742" points="80.3966 1.5312 103.7416 1.5312 103.7416 5.4732 84.6456 5.4732 84.6456 15.2412 102.2956 15.2412 102.2956 18.9642 84.6456 18.9642 84.6456 29.8692 104.0696 29.8692 104.0696 33.7022 80.3966 33.7022"></polygon>
                    <path d="M124.8639,11.4961 C126.5209,12.7811 127.5179,14.9931 127.8529,18.1321 L124.0199,18.1321 C123.7869,16.6851 123.2549,15.4851 122.4219,14.5291 C121.5899,13.5731 120.2539,13.0941 118.4149,13.0941 C115.9029,13.0941 114.1079,14.3191 113.0279,16.7691 C112.3259,18.3581 111.9749,20.3201 111.9749,22.6531 C111.9749,25.0011 112.4719,26.9771 113.4659,28.5811 C114.4579,30.1841 116.0199,30.9871 118.1509,30.9871 C119.7859,30.9871 121.0829,30.4891 122.0389,29.4921 C122.9949,28.4971 123.6559,27.1331 124.0199,25.4021 L127.8529,25.4021 C127.4149,28.5131 126.3209,30.7861 124.5679,32.2251 C122.8159,33.6621 120.5749,34.3821 117.8449,34.3821 C114.7789,34.3821 112.3339,33.2611 110.5089,31.0191 C108.6829,28.7791 107.7709,25.9791 107.7709,22.6201 C107.7709,18.5041 108.7709,15.3001 110.7709,13.0081 C112.7719,10.7161 115.3199,9.5681 118.4149,9.5681 C121.0569,9.5681 123.2069,10.2121 124.8639,11.4961" id="Fill-4" fill="#87B742"></path>
                    <path d="M124.8639,11.4961 C126.5209,12.7811 127.5179,14.9931 127.8529,18.1321 L124.0199,18.1321 C123.7869,16.6851 123.2549,15.4851 122.4219,14.5291 C121.5899,13.5731 120.2539,13.0941 118.4149,13.0941 C115.9029,13.0941 114.1079,14.3191 113.0279,16.7691 C112.3259,18.3581 111.9749,20.3201 111.9749,22.6531 C111.9749,25.0011 112.4719,26.9771 113.4659,28.5811 C114.4579,30.1841 116.0199,30.9871 118.1509,30.9871 C119.7859,30.9871 121.0829,30.4891 122.0389,29.4921 C122.9949,28.4971 123.6559,27.1331 124.0199,25.4021 L127.8529,25.4021 C127.4149,28.5131 126.3209,30.7861 124.5679,32.2251 C122.8159,33.6621 120.5749,34.3821 117.8449,34.3821 C114.7789,34.3821 112.3339,33.2611 110.5089,31.0191 C108.6829,28.7791 107.7709,25.9791 107.7709,22.6201 C107.7709,18.5041 108.7709,15.3001 110.7709,13.0081 C112.7719,10.7161 115.3199,9.5681 118.4149,9.5681 C121.0569,9.5681 123.2069,10.2121 124.8639,11.4961 Z" id="Stroke-6" stroke="#87B742"></path>
                    <path d="M146.3419,28.1767 C147.3009,26.2007 147.7809,24.0027 147.7809,21.5817 C147.7809,19.3947 147.4349,17.6147 146.7409,16.2437 C145.6449,14.0867 143.7539,13.0077 141.0689,13.0077 C138.6859,13.0077 136.9539,13.9257 135.8709,15.7637 C134.7889,17.6007 134.2469,19.8177 134.2469,22.4117 C134.2469,24.9067 134.7889,26.9847 135.8709,28.6467 C136.9539,30.3087 138.6719,31.1397 141.0259,31.1397 C143.6099,31.1397 145.3809,30.1527 146.3419,28.1767 M148.7889,12.5887 C150.8619,14.6017 151.8989,17.5627 151.8989,21.4717 C151.8989,25.2507 150.9859,28.3707 149.1589,30.8367 C147.3319,33.3027 144.4979,34.5347 140.6559,34.5347 C137.4519,34.5347 134.9069,33.4447 133.0229,31.2637 C131.1389,29.0827 130.1959,26.1557 130.1959,22.4787 C130.1959,18.5397 131.1889,15.4047 133.1749,13.0697 C135.1609,10.7357 137.8289,9.5687 141.1769,9.5687 C144.1789,9.5687 146.7159,10.5757 148.7889,12.5887" id="Fill-8" fill="#87B742"></path>
                    <path d="M146.3419,28.1767 C147.3009,26.2007 147.7809,24.0027 147.7809,21.5817 C147.7809,19.3947 147.4349,17.6147 146.7409,16.2437 C145.6449,14.0867 143.7539,13.0077 141.0689,13.0077 C138.6859,13.0077 136.9539,13.9257 135.8709,15.7637 C134.7889,17.6007 134.2469,19.8177 134.2469,22.4117 C134.2469,24.9067 134.7889,26.9847 135.8709,28.6467 C136.9539,30.3087 138.6719,31.1397 141.0259,31.1397 C143.6099,31.1397 145.3809,30.1527 146.3419,28.1767 Z M148.7889,12.5887 C150.8619,14.6017 151.8989,17.5627 151.8989,21.4717 C151.8989,25.2507 150.9859,28.3707 149.1589,30.8367 C147.3319,33.3027 144.4979,34.5347 140.6559,34.5347 C137.4519,34.5347 134.9069,33.4447 133.0229,31.2637 C131.1389,29.0827 130.1959,26.1557 130.1959,22.4787 C130.1959,18.5397 131.1889,15.4047 133.1749,13.0697 C135.1609,10.7357 137.8289,9.5687 141.1769,9.5687 C144.1789,9.5687 146.7159,10.5757 148.7889,12.5887 Z" id="Stroke-10" stroke="#87B742"></path>
                    <mask id="mask-8m3qzvmj4s-2" fill="white">
                        <use xlink:href="#path-8m3qzvmj4s-1"></use>
                    </mask>
                    <g id="Clip-13"></g>
                    <polygon id="Fill-12" fill="#FEFEFE" mask="url(#mask-8m3qzvmj4s-2)" points="156.848 33.702 160.79 33.702 160.79 1.531 156.848 1.531"></polygon>
                    <path d="M166.703,33.702 L170.71,33.702 L170.71,10.357 L166.703,10.357 L166.703,33.702 Z M166.703,5.999 L170.71,5.999 L170.71,1.531 L166.703,1.531 L166.703,5.999 Z" id="Fill-14" fill="#FEFEFE" mask="url(#mask-8m3qzvmj4s-2)"></path>
                    <path d="M176.6681,10.248 L180.5661,10.248 L180.5661,13.576 C181.5001,12.423 182.3471,11.584 183.1061,11.058 C184.4061,10.168 185.8801,9.722 187.5301,9.722 C189.3981,9.722 190.9021,10.182 192.0411,11.102 C192.6831,11.628 193.2681,12.401 193.7931,13.423 C194.6681,12.167 195.6981,11.237 196.8811,10.631 C198.0641,10.025 199.3911,9.722 200.8671,9.722 C204.0211,9.722 206.1661,10.86 207.3051,13.138 C207.9191,14.364 208.2251,16.015 208.2251,18.088 L208.2251,33.702 L204.1301,33.702 L204.1301,17.409 C204.1301,15.847 203.7391,14.773 202.9591,14.19 C202.1771,13.605 201.2241,13.313 200.1001,13.313 C198.5521,13.313 197.2201,13.832 196.1041,14.868 C194.9861,15.905 194.4281,17.636 194.4281,20.06 L194.4281,33.702 L190.4201,33.702 L190.4201,18.394 C190.4201,16.803 190.2311,15.643 189.8521,14.912 C189.2521,13.817 188.1351,13.269 186.5011,13.269 C185.0121,13.269 183.6571,13.847 182.4381,15 C181.2191,16.153 180.6091,18.241 180.6091,21.264 L180.6091,33.702 L176.6681,33.702 L176.6681,10.248 Z" id="Fill-15" fill="#FEFEFE" mask="url(#mask-8m3qzvmj4s-2)"></path>
                    <path d="M228.5319,28.7422 C229.7539,27.2022 230.3659,24.8992 230.3659,21.8332 C230.3659,19.9642 230.0949,18.3582 229.5529,17.0142 C228.5269,14.4302 226.6519,13.1382 223.9279,13.1382 C221.1879,13.1382 219.3129,14.5042 218.3029,17.2332 C217.7599,18.6942 217.4899,20.5482 217.4899,22.7962 C217.4899,24.6062 217.7599,26.1472 218.3029,27.4182 C219.3269,29.8422 221.2029,31.0522 223.9279,31.0522 C225.7729,31.0522 227.3069,30.2832 228.5319,28.7422 L228.5319,28.7422 Z M213.6999,10.3572 L217.5539,10.3572 L217.5539,13.4672 C218.3449,12.4012 219.2089,11.5762 220.1449,10.9922 C221.4779,10.1162 223.0429,9.6782 224.8439,9.6782 C227.5079,9.6782 229.7699,10.6962 231.6289,12.7332 C233.4879,14.7702 234.4179,17.6792 234.4179,21.4612 C234.4179,26.5702 233.0759,30.2202 230.3939,32.4102 C228.6939,33.7972 226.7149,34.4912 224.4579,34.4912 C222.6839,34.4912 221.1959,34.1032 219.9939,33.3302 C219.2909,32.8922 218.5069,32.1402 217.6419,31.0752 L217.6419,43.0532 L213.6999,43.0532 L213.6999,10.3572 Z" id="Fill-16" fill="#FEFEFE" mask="url(#mask-8m3qzvmj4s-2)"></path>
                    <path d="M238.973,33.702 L242.98,33.702 L242.98,10.357 L238.973,10.357 L238.973,33.702 Z M238.973,5.999 L242.98,5.999 L242.98,1.531 L238.973,1.531 L238.973,5.999 Z" id="Fill-17" fill="#FEFEFE" mask="url(#mask-8m3qzvmj4s-2)"></path>
                    <path d="M263.4835,28.1767 C264.4435,26.2007 264.9225,24.0027 264.9225,21.5817 C264.9225,19.3947 264.5775,17.6147 263.8835,16.2437 C262.7865,14.0867 260.8955,13.0077 258.2105,13.0077 C255.8285,13.0077 254.0955,13.9257 253.0135,15.7637 C251.9305,17.6007 251.3895,19.8177 251.3895,22.4117 C251.3895,24.9067 251.9305,26.9847 253.0135,28.6467 C254.0955,30.3087 255.8135,31.1397 258.1675,31.1397 C260.7515,31.1397 262.5235,30.1527 263.4835,28.1767 M265.9315,12.5887 C268.0035,14.6017 269.0415,17.5627 269.0415,21.4717 C269.0415,25.2507 268.1275,28.3707 266.3005,30.8367 C264.4735,33.3027 261.6395,34.5347 257.7975,34.5347 C254.5935,34.5347 252.0495,33.4447 250.1655,31.2637 C248.2805,29.0827 247.3375,26.1557 247.3375,22.4787 C247.3375,18.5397 248.3315,15.4047 250.3165,13.0697 C252.3025,10.7357 254.9705,9.5687 258.3195,9.5687 C261.3205,9.5687 263.8575,10.5757 265.9315,12.5887" id="Fill-18" fill="#FEFEFE" mask="url(#mask-8m3qzvmj4s-2)"></path>
                    <path d="M59.4513,56.1816 C57.4443,56.4986 45.9253,56.3436 45.9253,56.3436 C45.9253,56.3436 35.7173,56.1006 28.4503,55.5376 C29.1363,55.0816 29.7763,54.5916 30.3363,54.0466 C34.6493,49.8456 24.8363,51.8066 17.3243,53.0476 C16.8793,52.7246 16.6513,52.3166 16.6223,51.6796 C16.5423,49.9286 23.1353,49.7146 21.0923,49.0386 C19.0493,48.3646 12.7643,50.2946 14.7693,52.4716 C14.9983,52.7206 15.4753,52.9766 16.1593,53.2376 C15.0583,53.4116 14.0313,53.5616 13.1353,53.6606 C6.0533,54.4526 6.3383,50.8876 7.2453,49.0696 C8.1513,47.2496 14.9693,37.9636 14.9693,37.9636 C14.9693,37.9636 20.4713,30.6266 25.0283,25.1026 C25.0953,26.4616 25.3033,27.7606 25.7033,28.9456 C27.6043,34.5616 30.0213,25.2376 32.1193,17.9676 C33.8313,16.6456 34.6533,16.0866 35.7843,16.8186 C37.2563,17.7696 33.6013,23.2606 35.3373,21.9906 C37.0733,20.7186 39.1523,14.4816 36.2153,14.8496 C35.4963,14.9396 34.0843,15.9446 32.2423,17.5446 C32.6673,16.0806 33.0783,14.7136 33.4693,13.5916 C35.8093,6.8616 38.9023,8.6566 40.1523,10.2576 C41.4023,11.8606 46.8413,22.0156 46.8413,22.0156 C46.8413,22.0156 50.6973,29.3966 53.6733,35.7106 C52.4863,35.1386 51.2863,34.7086 50.0923,34.4936 C43.9043,33.3736 52.1393,40.8956 57.5403,46.3746 C57.9503,48.3126 58.0423,49.2396 56.9433,49.9146 C55.4503,50.8326 52.0713,45.1666 52.4703,47.2816 C52.8683,49.3956 57.5983,53.9606 58.5333,51.1526 C58.7513,50.4986 58.4953,48.9276 57.9103,46.7516 C58.5973,47.4536 59.2313,48.1186 59.7693,48.7186 C64.5253,54.0256 61.4583,55.8636 59.4513,56.1816 M67.8613,50.6936 C65.2533,45.4886 59.9853,39.0446 54.3173,36.0316 C49.5593,23.3006 42.3213,6.9556 40.5493,4.4676 C37.7433,0.5276 35.3813,-0.4284 31.2793,5.5546 C27.9813,10.3656 24.8863,18.1156 25.0053,24.5396 C15.4693,34.3596 3.3633,48.4776 1.8493,51.2076 C-0.4947,55.4386 -0.3387,57.9826 6.8283,59.1026 C13.0773,60.0796 22.3453,59.3556 28.0633,55.7996 C41.6693,57.9376 61.1393,59.6946 64.3263,59.3306 C69.1323,58.7826 71.1123,57.1786 67.8613,50.6936" id="Fill-19" fill="#87B742" mask="url(#mask-8m3qzvmj4s-2)"></path>
                    <path d="M59.4513,56.1816 C57.4443,56.4986 45.9253,56.3436 45.9253,56.3436 C45.9253,56.3436 35.7173,56.1006 28.4503,55.5376 C29.1363,55.0816 29.7763,54.5916 30.3363,54.0466 C34.6493,49.8456 24.8363,51.8066 17.3243,53.0476 C16.8793,52.7246 16.6513,52.3166 16.6223,51.6796 C16.5423,49.9286 23.1353,49.7146 21.0923,49.0386 C19.0493,48.3646 12.7643,50.2946 14.7693,52.4716 C14.9983,52.7206 15.4753,52.9766 16.1593,53.2376 C15.0583,53.4116 14.0313,53.5616 13.1353,53.6606 C6.0533,54.4526 6.3383,50.8876 7.2453,49.0696 C8.1513,47.2496 14.9693,37.9636 14.9693,37.9636 C14.9693,37.9636 20.4713,30.6266 25.0283,25.1026 C25.0953,26.4616 25.3033,27.7606 25.7033,28.9456 C27.6043,34.5616 30.0213,25.2376 32.1193,17.9676 C33.8313,16.6456 34.6533,16.0866 35.7843,16.8186 C37.2563,17.7696 33.6013,23.2606 35.3373,21.9906 C37.0733,20.7186 39.1523,14.4816 36.2153,14.8496 C35.4963,14.9396 34.0843,15.9446 32.2423,17.5446 C32.6673,16.0806 33.0783,14.7136 33.4693,13.5916 C35.8093,6.8616 38.9023,8.6566 40.1523,10.2576 C41.4023,11.8606 46.8413,22.0156 46.8413,22.0156 C46.8413,22.0156 50.6973,29.3966 53.6733,35.7106 C52.4863,35.1386 51.2863,34.7086 50.0923,34.4936 C43.9043,33.3736 52.1393,40.8956 57.5403,46.3746 C57.9503,48.3126 58.0423,49.2396 56.9433,49.9146 C55.4503,50.8326 52.0713,45.1666 52.4703,47.2816 C52.8683,49.3956 57.5983,53.9606 58.5333,51.1526 C58.7513,50.4986 58.4953,48.9276 57.9103,46.7516 C58.5973,47.4536 59.2313,48.1186 59.7693,48.7186 C64.5253,54.0256 61.4583,55.8636 59.4513,56.1816 Z M67.8613,50.6936 C65.2533,45.4886 59.9853,39.0446 54.3173,36.0316 C49.5593,23.3006 42.3213,6.9556 40.5493,4.4676 C37.7433,0.5276 35.3813,-0.4284 31.2793,5.5546 C27.9813,10.3656 24.8863,18.1156 25.0053,24.5396 C15.4693,34.3596 3.3633,48.4776 1.8493,51.2076 C-0.4947,55.4386 -0.3387,57.9826 6.8283,59.1026 C13.0773,60.0796 22.3453,59.3556 28.0633,55.7996 C41.6693,57.9376 61.1393,59.6946 64.3263,59.3306 C69.1323,58.7826 71.1123,57.1786 67.8613,50.6936 Z" id="Stroke-20" stroke="#87B742" mask="url(#mask-8m3qzvmj4s-2)"></path>
                    <path d="M90.6481,49.3623 L89.0891,49.3623 C89.0891,48.2423 88.9021,47.5313 88.5281,47.2283 C88.1541,46.9253 87.2741,46.7753 85.8891,46.7753 C84.2451,46.7753 83.1851,46.9203 82.7101,47.2083 C82.2341,47.4973 81.9971,48.1403 81.9971,49.1383 C81.9971,50.2593 82.1841,50.9423 82.5581,51.1873 C82.9301,51.4313 84.0411,51.5983 85.8891,51.6863 C88.0561,51.7823 89.4341,52.0563 90.0211,52.5113 C90.6081,52.9663 90.9021,53.9863 90.9021,55.5683 C90.9021,57.2803 90.5651,58.3873 89.8891,58.8893 C89.2131,59.3933 87.7191,59.6443 85.4111,59.6443 C83.4071,59.6443 82.0731,59.3913 81.4111,58.8853 C80.7491,58.3793 80.4181,57.3583 80.4181,55.8233 L80.4071,55.2013 L81.9661,55.2013 L81.9661,55.5483 C81.9661,56.7923 82.1571,57.5643 82.5371,57.8663 C82.9171,58.1683 83.8921,58.3203 85.4611,58.3203 C87.2611,58.3203 88.3681,58.1683 88.7831,57.8663 C89.1971,57.5643 89.4041,56.7573 89.4041,55.4453 C89.4041,54.5973 89.2641,54.0313 88.9821,53.7503 C88.6991,53.4673 88.1101,53.3003 87.2141,53.2453 L85.5841,53.1643 L84.0341,53.0833 C81.6781,52.9193 80.4991,51.6963 80.4991,49.4143 C80.4991,47.8323 80.8421,46.7753 81.5281,46.2453 C82.2141,45.7163 83.5831,45.4513 85.6351,45.4513 C87.7131,45.4513 89.0691,45.6963 89.7001,46.1883 C90.3321,46.6813 90.6481,47.7393 90.6481,49.3623" id="Fill-21" fill="#FEFEFE" mask="url(#mask-8m3qzvmj4s-2)"></path>
                    <path d="M99.4928,53.7851 L99.4828,53.3271 C99.4828,52.2741 99.3088,51.5891 98.9628,51.2731 C98.6168,50.9571 97.8688,50.8001 96.7218,50.8001 C95.5668,50.8001 94.8178,50.9841 94.4738,51.3541 C94.1318,51.7251 93.9598,52.5351 93.9598,53.7851 L99.4928,53.7851 Z M99.4928,56.5561 L100.9508,56.5561 L100.9608,56.9131 C100.9608,57.9261 100.6528,58.6351 100.0378,59.0381 C99.4228,59.4421 98.3458,59.6441 96.8028,59.6441 C95.0088,59.6441 93.8318,59.3171 93.2718,58.6611 C92.7118,58.0061 92.4308,56.6281 92.4308,54.5291 C92.4308,52.5861 92.7138,51.2821 93.2768,50.6161 C93.8408,49.9501 94.9448,49.6181 96.5898,49.6181 C98.3828,49.6181 99.5568,49.9061 100.1148,50.4841 C100.6708,51.0601 100.9508,52.2771 100.9508,54.1311 L100.9508,54.8961 L93.9388,54.8961 C93.9388,56.4311 94.1048,57.4091 94.4338,57.8301 C94.7638,58.2511 95.5328,58.4621 96.7418,58.4621 C97.8888,58.4621 98.6348,58.3611 98.9778,58.1611 C99.3208,57.9621 99.4928,57.5281 99.4928,56.8621 L99.4928,56.5561 Z" id="Fill-22" fill="#FEFEFE" mask="url(#mask-8m3qzvmj4s-2)"></path>
                    <path d="M103.3439,49.7598 L104.7709,49.7598 L104.6279,50.8808 L104.6579,50.9118 C105.2229,49.9938 106.1529,49.5358 107.4499,49.5358 C109.2439,49.5358 110.1409,50.4608 110.1409,52.3078 L110.1309,52.9808 L108.7239,52.9808 L108.7549,52.7358 C108.7749,52.4778 108.7849,52.3048 108.7849,52.2168 C108.7849,51.2178 108.2419,50.7188 107.1559,50.7188 C105.5659,50.7188 104.7709,51.6988 104.7709,53.6628 L104.7709,59.5018 L103.3439,59.5018 L103.3439,49.7598 Z" id="Fill-23" fill="#FEFEFE" mask="url(#mask-8m3qzvmj4s-2)"></path>
                    <polygon id="Fill-24" fill="#FEFEFE" mask="url(#mask-8m3qzvmj4s-2)" points="118.7306 49.7598 115.4696 59.5018 113.4206 59.5018 110.1916 49.7598 111.6586 49.7598 113.3806 55.0598 113.9206 56.7198 114.1756 57.5558 114.4406 58.3908 114.4806 58.3908 114.7256 57.5658 114.9706 56.7298 115.4906 55.0798 117.1416 49.7598"></polygon>
                    <path d="M119.913,59.502 L121.339,59.502 L121.339,49.76 L119.913,49.76 L119.913,59.502 Z M119.913,47.193 L121.339,47.193 L121.339,45.592 L119.913,45.592 L119.913,47.193 Z" id="Fill-25" fill="#FEFEFE" mask="url(#mask-8m3qzvmj4s-2)"></path>
                    <path d="M130.5299,55.9863 L131.9569,55.9863 L131.9669,56.5153 C131.9669,58.6013 130.6019,59.6443 127.8709,59.6443 C126.1179,59.6443 124.9599,59.3143 124.3959,58.6563 C123.8329,57.9973 123.5499,56.6383 123.5499,54.5803 C123.5499,52.6513 123.8379,51.3413 124.4119,50.6523 C124.9849,49.9633 126.0779,49.6183 127.6869,49.6183 C129.2709,49.6183 130.3509,49.8503 130.9269,50.3153 C131.5059,50.7813 131.7939,51.6553 131.7939,52.9393 L130.3679,52.9393 L130.3679,52.6853 C130.3679,51.9303 130.1809,51.4273 129.8069,51.1763 C129.4329,50.9253 128.6899,50.7993 127.5759,50.7993 C126.5019,50.7993 125.8129,51.0373 125.5069,51.5123 C125.2009,51.9893 125.0479,53.0553 125.0479,54.7133 C125.0479,56.3293 125.2239,57.3583 125.5729,57.7993 C125.9239,58.2413 126.7399,58.4623 128.0239,58.4623 C129.1109,58.4623 129.7999,58.3183 130.0919,58.0293 C130.3839,57.7403 130.5299,57.0593 130.5299,55.9863" id="Fill-26" fill="#FEFEFE" mask="url(#mask-8m3qzvmj4s-2)"></path>
                    <path d="M133.954,59.502 L135.38,59.502 L135.38,49.76 L133.954,49.76 L133.954,59.502 Z M133.954,47.193 L135.38,47.193 L135.38,45.592 L133.954,45.592 L133.954,47.193 Z" id="Fill-27" fill="#FEFEFE" mask="url(#mask-8m3qzvmj4s-2)"></path>
                    <path d="M141.9015,50.7998 C140.6375,50.7998 139.8545,51.0058 139.5525,51.4158 C139.2515,51.8268 139.0985,52.8998 139.0985,54.6318 C139.0985,56.3628 139.2515,57.4348 139.5525,57.8458 C139.8545,58.2568 140.6375,58.4618 141.9015,58.4618 C143.1725,58.4618 143.9585,58.2568 144.2605,57.8458 C144.5625,57.4348 144.7135,56.3628 144.7135,54.6318 C144.7135,52.8998 144.5625,51.8268 144.2605,51.4158 C143.9585,51.0058 143.1725,50.7998 141.9015,50.7998 M141.9015,49.6178 C143.7015,49.6178 144.8705,49.9298 145.4065,50.5558 C145.9435,51.1808 146.2115,52.5388 146.2115,54.6318 C146.2115,56.7228 145.9435,58.0818 145.4065,58.7058 C144.8705,59.3318 143.7015,59.6448 141.9015,59.6448 C140.1085,59.6448 138.9435,59.3318 138.4065,58.7058 C137.8705,58.0818 137.6015,56.7228 137.6015,54.6318 C137.6015,52.5388 137.8705,51.1808 138.4065,50.5558 C138.9435,49.9298 140.1085,49.6178 141.9015,49.6178" id="Fill-28" fill="#FEFEFE" mask="url(#mask-8m3qzvmj4s-2)"></path>
                    <path d="M155.9825,52.3076 L154.5565,52.3076 C154.5565,51.6286 154.4195,51.2066 154.1435,51.0436 C153.8685,50.8806 153.1595,50.7996 152.0195,50.7996 C150.9595,50.7996 150.2865,50.8866 150.0015,51.0596 C149.7165,51.2336 149.5735,51.6496 149.5735,52.3076 C149.5735,53.3066 150.0525,53.8286 151.0105,53.8766 L152.1625,53.9376 L153.6195,54.0096 C155.3855,54.0976 156.2685,55.0226 156.2685,56.7816 C156.2685,57.8746 155.9755,58.6246 155.3925,59.0336 C154.8075,59.4406 153.7375,59.6446 152.1825,59.6446 C150.5865,59.6446 149.4865,59.4516 148.8855,59.0636 C148.2855,58.6756 147.9845,57.9666 147.9845,56.9336 L147.9945,56.4046 L149.4725,56.4046 L149.4825,56.8626 C149.4825,57.5006 149.6445,57.9266 149.9715,58.1406 C150.2965,58.3556 150.9395,58.4616 151.8975,58.4616 C153.0715,58.4616 153.8445,58.3506 154.2155,58.1256 C154.5845,57.9026 154.7705,57.4336 154.7705,56.7196 C154.7705,55.6946 154.3055,55.1806 153.3745,55.1806 C151.2075,55.1806 149.7825,54.9966 149.0995,54.6316 C148.4175,54.2646 148.0755,53.5036 148.0755,52.3486 C148.0755,51.2546 148.3465,50.5266 148.8855,50.1626 C149.4265,49.7996 150.5005,49.6186 152.1115,49.6186 C154.6915,49.6186 155.9825,50.3956 155.9825,51.9516 L155.9825,52.3076 Z" id="Fill-29" fill="#FEFEFE" mask="url(#mask-8m3qzvmj4s-2)"></path>
                    <path d="M171.6949,55.375 L168.6079,46.877 L165.5609,55.375 L171.6949,55.375 Z M172.1529,56.557 L165.1119,56.557 L164.0429,59.502 L162.3809,59.502 L167.4769,45.593 L169.6769,45.593 L174.8739,59.502 L173.2339,59.502 L172.1529,56.557 Z" id="Fill-30" fill="#FEFEFE" mask="url(#mask-8m3qzvmj4s-2)"></path>
                    <path d="M176.2291,49.7598 L177.6551,49.7598 L177.6251,51.2278 L177.6551,51.2578 C178.2061,50.1638 179.2661,49.6178 180.8341,49.6178 C182.4851,49.6178 183.4871,50.1638 183.8411,51.2578 L183.8811,51.2578 C184.4931,50.1638 185.6101,49.6178 187.2331,49.6178 C189.5301,49.6178 190.6781,50.7888 190.6781,53.1338 L190.6781,59.5018 L189.2501,59.5018 L189.2501,53.0008 C189.2501,52.1448 189.0991,51.5648 188.7921,51.2578 C188.4871,50.9528 187.9091,50.7998 187.0601,50.7998 C185.9331,50.7998 185.1691,51.0128 184.7681,51.4378 C184.3671,51.8618 184.1661,52.6718 184.1661,53.8658 L184.1661,59.5018 L182.7401,59.5018 L182.7401,53.1338 L182.7201,52.6858 C182.7201,51.4278 182.0031,50.7998 180.5701,50.7998 C178.6271,50.7998 177.6551,51.8568 177.6551,53.9688 L177.6551,59.5018 L176.2291,59.5018 L176.2291,49.7598 Z" id="Fill-31" fill="#FEFEFE" mask="url(#mask-8m3qzvmj4s-2)"></path>
                    <path d="M197.7487,50.7998 C196.6277,50.7998 195.8777,51.0398 195.4977,51.5188 C195.1167,51.9968 194.9267,52.9498 194.9267,54.3758 C194.9267,56.1358 195.0987,57.2568 195.4407,57.7388 C195.7847,58.2208 196.5737,58.4618 197.8107,58.4618 C198.8557,58.4618 199.5477,58.2168 199.8847,57.7238 C200.2197,57.2318 200.3887,56.2208 200.3887,54.6928 C200.3887,53.0828 200.2227,52.0298 199.8887,51.5378 C199.5567,51.0458 198.8427,50.7998 197.7487,50.7998 L197.7487,50.7998 Z M193.4597,59.5018 L193.4597,45.5928 L194.8857,45.5928 L194.8857,51.0038 L194.9157,51.0338 C195.2427,50.0898 196.3097,49.6178 198.1157,49.6178 C199.5427,49.6178 200.5277,49.9878 201.0717,50.7288 C201.6147,51.4688 201.8857,52.8108 201.8857,54.7528 C201.8857,56.5948 201.5997,57.8688 201.0257,58.5788 C200.4507,59.2898 199.4137,59.6448 197.9127,59.6448 C196.3837,59.6448 195.3647,59.1938 194.8547,58.2888 L194.8147,58.2988 L194.8857,59.5018 L193.4597,59.5018 Z" id="Fill-32" fill="#FEFEFE" mask="url(#mask-8m3qzvmj4s-2)"></path>
                    <path d="M204.128,59.502 L205.554,59.502 L205.554,49.76 L204.128,49.76 L204.128,59.502 Z M204.128,47.193 L205.554,47.193 L205.554,45.592 L204.128,45.592 L204.128,47.193 Z" id="Fill-33" fill="#FEFEFE" mask="url(#mask-8m3qzvmj4s-2)"></path>
                    <path d="M214.8273,53.7851 L214.8173,53.3271 C214.8173,52.2741 214.6433,51.5891 214.2963,51.2731 C213.9513,50.9571 213.2033,50.8001 212.0553,50.8001 C210.9013,50.8001 210.1523,50.9841 209.8083,51.3541 C209.4663,51.7251 209.2933,52.5351 209.2933,53.7851 L214.8273,53.7851 Z M214.8273,56.5561 L216.2853,56.5561 L216.2953,56.9131 C216.2953,57.9261 215.9873,58.6351 215.3723,59.0381 C214.7573,59.4421 213.6793,59.6441 212.1363,59.6441 C210.3433,59.6441 209.1663,59.3171 208.6063,58.6611 C208.0453,58.0061 207.7653,56.6281 207.7653,54.5291 C207.7653,52.5861 208.0483,51.2821 208.6113,50.6161 C209.1753,49.9501 210.2793,49.6181 211.9233,49.6181 C213.7163,49.6181 214.8913,49.9061 215.4493,50.4841 C216.0053,51.0601 216.2853,52.2771 216.2853,54.1311 L216.2853,54.8961 L209.2733,54.8961 C209.2733,56.4311 209.4393,57.4091 209.7673,57.8301 C210.0983,58.2511 210.8673,58.4621 212.0763,58.4621 C213.2233,58.4621 213.9693,58.3611 214.3123,58.1611 C214.6553,57.9621 214.8273,57.5281 214.8273,56.8621 L214.8273,56.5561 Z" id="Fill-34" fill="#FEFEFE" mask="url(#mask-8m3qzvmj4s-2)"></path>
                    <path d="M218.5363,49.7598 L219.9113,49.7598 L219.8703,51.0848 L219.9113,51.1158 C220.3463,50.1168 221.4263,49.6178 223.1523,49.6178 C224.5443,49.6178 225.4873,49.8628 225.9793,50.3518 C226.4723,50.8398 226.7183,51.7788 226.7183,53.1638 L226.7183,59.5018 L225.2913,59.5018 L225.2913,53.2848 L225.2913,52.9188 C225.2913,52.0838 225.1323,51.5218 224.8133,51.2338 C224.4933,50.9448 223.8783,50.7998 222.9683,50.7998 C220.9643,50.7998 219.9623,51.7468 219.9623,53.6428 L219.9623,59.5018 L218.5363,59.5018 L218.5363,49.7598 Z" id="Fill-35" fill="#FEFEFE" mask="url(#mask-8m3qzvmj4s-2)"></path>
                    <path d="M234.4611,49.7598 L234.4611,50.9428 L230.7111,50.9428 L230.7111,56.9038 C230.7111,57.9428 231.1731,58.4618 232.0981,58.4618 C233.0151,58.4618 233.4731,57.9968 233.4731,57.0668 L233.4831,56.5878 L233.5041,56.0468 L234.8281,56.0468 L234.8381,56.7708 C234.8381,58.6868 233.9281,59.6448 232.1081,59.6448 C230.2261,59.6448 229.2861,58.8458 229.2861,57.2498 L229.2861,56.9038 L229.2861,50.9428 L227.9411,50.9428 L227.9411,49.7598 L229.2861,49.7598 L229.2861,47.4168 L230.7111,47.4168 L230.7111,49.7598 L234.4611,49.7598 Z" id="Fill-36" fill="#FEFEFE" mask="url(#mask-8m3qzvmj4s-2)"></path>
                    <path d="M239.8722,54.6816 C238.7782,54.6816 238.0662,54.7976 237.7382,55.0286 C237.4082,55.2596 237.2432,55.7556 237.2432,56.5156 C237.2432,57.3036 237.4062,57.8256 237.7322,58.0796 C238.0592,58.3346 238.7212,58.4616 239.7192,58.4616 C241.7302,58.4616 242.7352,57.8506 242.7352,56.6276 C242.7352,55.8606 242.5402,55.3446 242.1492,55.0796 C241.7592,54.8156 240.9992,54.6816 239.8722,54.6816 M237.5802,52.4916 L236.1632,52.4916 C236.1632,51.3576 236.4202,50.5946 236.9322,50.2036 C237.4452,49.8136 238.4492,49.6186 239.9432,49.6186 C241.5672,49.6186 242.6642,49.8576 243.2352,50.3356 C243.8052,50.8156 244.0902,51.7266 244.0902,53.0726 L244.0902,59.5016 L242.6642,59.5016 L242.7762,58.4526 L242.7452,58.4416 C242.2022,59.2436 241.0992,59.6446 239.4342,59.6446 C236.9752,59.6446 235.7452,58.6566 235.7452,56.6786 C235.7452,55.5036 236.0202,54.6926 236.5712,54.2446 C237.1212,53.7956 238.1162,53.5716 239.5572,53.5716 C241.2682,53.5716 242.2932,53.9076 242.6342,54.5796 L242.6642,54.5696 L242.6642,53.3876 C242.6642,52.2746 242.5112,51.5516 242.2052,51.2236 C241.8992,50.8936 241.2302,50.7286 240.1992,50.7286 C238.4462,50.7286 237.5702,51.2206 237.5702,52.2056 C237.5702,52.2536 237.5722,52.3486 237.5802,52.4916" id="Fill-37" fill="#FEFEFE" mask="url(#mask-8m3qzvmj4s-2)"></path>
                    <polygon id="Fill-38" fill="#FEFEFE" mask="url(#mask-8m3qzvmj4s-2)" points="246.73 59.502 248.156 59.502 248.156 45.593 246.73 45.593"></polygon>
                    <path d="M257.4396,53.7851 L257.4296,53.3271 C257.4296,52.2741 257.2556,51.5891 256.9086,51.2731 C256.5636,50.9571 255.8146,50.8001 254.6676,50.8001 C253.5126,50.8001 252.7636,50.9841 252.4206,51.3541 C252.0786,51.7251 251.9056,52.5351 251.9056,53.7851 L257.4396,53.7851 Z M257.4396,56.5561 L258.8966,56.5561 L258.9066,56.9131 C258.9066,57.9261 258.5996,58.6351 257.9846,59.0381 C257.3696,59.4421 256.2916,59.6441 254.7486,59.6441 C252.9556,59.6441 251.7786,59.3171 251.2186,58.6611 C250.6576,58.0061 250.3776,56.6281 250.3776,54.5291 C250.3776,52.5861 250.6596,51.2821 251.2236,50.6161 C251.7876,49.9501 252.8916,49.6181 254.5356,49.6181 C256.3286,49.6181 257.5036,49.9061 258.0616,50.4841 C258.6176,51.0601 258.8966,52.2771 258.8966,54.1311 L258.8966,54.8961 L251.8856,54.8961 C251.8856,56.4311 252.0506,57.4091 252.3796,57.8301 C252.7106,58.2511 253.4796,58.4621 254.6876,58.4621 C255.8356,58.4621 256.5816,58.3611 256.9246,58.1611 C257.2676,57.9621 257.4396,57.5281 257.4396,56.8621 L257.4396,56.5561 Z" id="Fill-39" fill="#FEFEFE" mask="url(#mask-8m3qzvmj4s-2)"></path>
                    <path d="M268.6979,52.3076 L267.2719,52.3076 C267.2719,51.6286 267.1349,51.2066 266.8589,51.0436 C266.5839,50.8806 265.8759,50.7996 264.7349,50.7996 C263.6749,50.7996 263.0019,50.8866 262.7179,51.0596 C262.4319,51.2336 262.2889,51.6496 262.2889,52.3076 C262.2889,53.3066 262.7679,53.8286 263.7269,53.8766 L264.8779,53.9376 L266.3349,54.0096 C268.1009,54.0976 268.9839,55.0226 268.9839,56.7816 C268.9839,57.8746 268.6919,58.6246 268.1079,59.0336 C267.5229,59.4406 266.4529,59.6446 264.8979,59.6446 C263.3019,59.6446 262.2029,59.4516 261.6009,59.0636 C261.0009,58.6756 260.6999,57.9666 260.6999,56.9336 L260.7099,56.4046 L262.1879,56.4046 L262.1979,56.8626 C262.1979,57.5006 262.3609,57.9266 262.6869,58.1406 C263.0119,58.3556 263.6549,58.4616 264.6129,58.4616 C265.7879,58.4616 266.5599,58.3506 266.9309,58.1256 C267.3009,57.9026 267.4859,57.4336 267.4859,56.7196 C267.4859,55.6946 267.0209,55.1806 266.0899,55.1806 C263.9229,55.1806 262.4979,54.9966 261.8149,54.6316 C261.1329,54.2646 260.7909,53.5036 260.7909,52.3486 C260.7909,51.2546 261.0619,50.5266 261.6009,50.1626 C262.1419,49.7996 263.2169,49.6186 264.8269,49.6186 C267.4069,49.6186 268.6979,50.3956 268.6979,51.9516 L268.6979,52.3076 Z" id="Fill-40" fill="#FEFEFE" mask="url(#mask-8m3qzvmj4s-2)"></path>
                </g>
            </g>
        </g>
    </g>
</svg>